# xmcd
# Copyright (C) 1995-1998 Ti Kan
#
# Track frame offsets:
#       150
#       14587
#       29486
#       45130
#       59888
#       74839
#       90489
#       104431
#       118284
#       137077
#       152441
#       166375
#
# Disc length: 2416 seconds
#
# Revision: 2
# Processed by: cddbd v1.5.1PL2 Copyright (c) Steve Scherf et al.
# Submitted via: CD-Transfer v1.0
#
DISCID=a9096e0c
DTITLE=Myrto - Die Mit O
DYEAR=2006
DGENRE=
TTITLE0=Die Mit O
TTITLE1=Miss Ch
TTITLE2=Wiiber Und Chäre
TTITLE3=Brüel Nöd
TTITLE4=Hänk Nöd Ab
TTITLE5=Endi Vo De Wält
TTITLE6=Chume Nöme Drus
TTITLE7=Verpiss Di
TTITLE8=Gin and Tonic Tag
TTITLE9=Ernte Was Mer Säht
TTITLE10=De Chli Finger
TTITLE11=Zürisee
EXTD=
EXTT0=
EXTT1=
EXTT2=
EXTT3=
EXTT4=
EXTT5=
EXTT6=
EXTT7=
EXTT8=
EXTT9=
EXTT10=
EXTT11=
PLAYORDER=
